<svg width="241" height="65" viewBox="0 0 241 65" fill="none" xmlns="http://www.w3.org/2000/svg">
<path d="M0 35.3524V6.99854H4.78702V35.3524H0Z" fill="white"/>
<path d="M11.417 35.3521V14.4842H15.8091L16.029 16.686C16.965 15.9521 18.0847 15.3283 19.3881 14.8149C20.6901 14.3014 22.1324 14.0447 23.7136 14.0447C26.4059 14.0447 28.3676 14.6771 29.5972 15.9375C30.8269 17.1995 31.4417 19.1663 31.4417 21.8366V35.3536H26.6996V22.0571C26.6996 20.4427 26.3697 19.3128 25.7115 18.6673C25.0518 18.0219 23.8149 17.6984 22.0008 17.6984C20.9172 17.6984 19.8554 17.9189 18.8167 18.3584C17.778 18.7993 16.9071 19.3708 16.204 20.0758V35.3521H11.417Z" fill="white"/>
<path d="M37.8955 35.3521V14.4842H42.2876L42.5075 16.686C43.4435 15.9521 44.5632 15.3283 45.8666 14.8149C47.1686 14.3014 48.611 14.0447 50.1922 14.0447C52.8844 14.0447 54.8461 14.6771 56.0757 15.9375C57.3054 17.1995 57.9202 19.1663 57.9202 21.8366V35.3536H53.1781V22.0571C53.1781 20.4427 52.8482 19.3128 52.19 18.6673C51.5303 18.0219 50.2934 17.6984 48.4793 17.6984C47.3958 17.6984 46.3339 17.9189 45.2952 18.3584C44.2565 18.7993 43.3856 19.3708 42.6825 20.0758V35.3521H37.8955Z" fill="white"/>
<path d="M73.9013 35.7918C70.1545 35.7918 67.4101 34.8534 65.6683 32.9736C63.9266 31.0952 63.0557 28.4104 63.0557 24.9162C63.0557 21.4234 63.9338 18.7386 65.69 16.8588C67.4463 14.9804 70.1834 14.0405 73.9013 14.0405C77.6482 14.0405 80.3997 14.9804 82.1574 16.8588C83.9137 18.7372 84.7918 21.4234 84.7918 24.9162C84.7918 28.4089 83.9195 31.0952 82.1791 32.9736C80.4359 34.8534 77.6786 35.7918 73.9013 35.7918ZM73.9013 31.7421C76.0974 31.7421 77.6569 31.2069 78.5784 30.135C79.4999 29.0645 79.9614 27.324 79.9614 24.9176C79.9614 22.5113 79.4999 20.7794 78.5784 19.722C77.6569 18.6646 76.0974 18.1367 73.9013 18.1367C71.7342 18.1367 70.1906 18.6646 69.2691 19.722C68.3476 20.778 67.8861 22.5113 67.8861 24.9176C67.8861 27.324 68.3476 29.0645 69.2691 30.135C70.1906 31.2069 71.7342 31.7421 73.9013 31.7421Z" fill="white"/>
<path d="M95.4627 35.3523L87.2515 14.4844H92.2135L98.0537 30.6862L103.894 14.4844H108.811L100.643 35.3523H95.4627Z" fill="white"/>
<path d="M119.13 35.7919C117.812 35.7919 116.591 35.5569 115.463 35.0869C114.334 34.617 113.436 33.9062 112.762 32.9518C112.088 31.9989 111.752 30.8167 111.752 29.4069C111.752 27.411 112.433 25.8039 113.793 24.5855C115.155 23.3671 117.255 22.7579 120.095 22.7579H126.77V21.8339C126.77 20.836 126.616 20.0441 126.308 19.4566C126.002 18.8692 125.445 18.4442 124.64 18.1802C123.836 17.9162 122.657 17.7842 121.106 17.7842C118.647 17.7842 116.348 18.1512 114.213 18.8851V15.3184C115.149 14.9369 116.29 14.6294 117.637 14.3945C118.982 14.1595 120.432 14.042 121.984 14.042C125.028 14.042 127.348 14.6584 128.944 15.8913C130.54 17.1243 131.337 19.1346 131.337 21.9224V35.3509H127.253L126.945 33.2376C126.096 34.06 125.05 34.6909 123.806 35.1304C122.561 35.5728 121.003 35.7919 119.13 35.7919ZM120.403 32.3586C121.837 32.3586 123.089 32.1164 124.159 31.6319C125.226 31.1474 126.097 30.4947 126.771 29.6723V26.0186H120.185C118.778 26.0186 117.761 26.2898 117.132 26.8323C116.503 27.3762 116.189 28.2044 116.189 29.3198C116.189 30.4062 116.555 31.1837 117.287 31.6537C118.017 32.1236 119.056 32.3586 120.403 32.3586Z" fill="white"/>
<path d="M151.009 35.7919C146.355 35.7919 142.834 34.5155 140.448 31.9612C138.061 29.4069 136.869 25.9591 136.869 21.615C136.869 18.5037 137.374 15.8247 138.384 13.5794C139.394 11.334 140.937 9.60215 143.016 8.38375C145.093 7.16535 147.744 6.55615 150.964 6.55615C152.603 6.55615 154.103 6.6809 155.466 6.93038C156.827 7.17986 158.093 7.51057 159.264 7.92105V12.1028C158.092 11.6328 156.84 11.2731 155.508 11.0236C154.176 10.7741 152.778 10.6494 151.314 10.6494C147.802 10.6494 145.321 11.5893 143.871 13.4677C142.421 15.346 141.697 18.0613 141.697 21.6135C141.697 24.9308 142.487 27.4473 144.068 29.1632C145.649 30.8806 148.092 31.7393 151.401 31.7393C152.746 31.7393 154.102 31.6291 155.463 31.4086C156.824 31.1881 158.105 30.8443 159.305 30.3744V34.6011C158.134 34.9826 156.868 35.277 155.507 35.4815C154.15 35.6889 152.648 35.7919 151.009 35.7919Z" fill="white"/>
<path d="M165.06 35.3523V5.67847H169.846V16.5092C170.753 15.7752 171.836 15.182 173.095 14.7265C174.353 14.2711 175.774 14.0434 177.354 14.0434C179.988 14.0434 181.935 14.6758 183.194 15.9362C184.453 17.1981 185.082 19.165 185.082 21.8353V35.3523H180.34V22.0558C180.34 20.4414 179.995 19.3115 179.308 18.666C178.621 18.0206 177.428 17.6971 175.729 17.6971C174.676 17.6971 173.607 17.9248 172.523 18.3803C171.44 18.8357 170.547 19.4304 169.844 20.1629V35.3523H165.06Z" fill="white"/>
<path d="M193.69 35.3524V18.1382H190.529L190.969 14.4845H198.477V35.3524H193.69ZM193.295 10.1258V6.16309H198.52V10.1258H193.295Z" fill="white"/>
<path d="M210.331 35.7918C208.632 35.7918 207.345 35.374 206.467 34.5371C205.589 33.7002 205.149 32.3135 205.149 30.3771V5.67847H209.934V29.9376C209.934 30.7601 210.081 31.3171 210.374 31.61C210.667 31.903 211.106 32.0495 211.692 32.0495C212.395 32.0495 213.068 31.9611 213.712 31.7856V35.2638C213.156 35.4683 212.621 35.609 212.109 35.6815C211.598 35.7555 211.004 35.7918 210.331 35.7918Z" fill="white"/>
<path d="M229.081 35.7919C225.451 35.7919 222.641 34.8969 220.65 33.107C218.659 31.3172 217.664 28.5729 217.664 24.8741C217.664 21.5279 218.513 18.8866 220.212 16.9488C221.909 15.0124 224.485 14.0435 227.94 14.0435C231.101 14.0435 233.479 14.8731 235.076 16.531C236.672 18.1889 237.469 20.3255 237.469 22.9363V26.8105H222.233C222.466 28.8354 223.199 30.2307 224.429 30.9922C225.658 31.7566 227.532 32.1367 230.049 32.1367C231.102 32.1367 232.186 32.0337 233.298 31.8292C234.409 31.6247 235.376 31.3592 236.196 31.0372V34.559C235.258 34.9709 234.184 35.2784 232.968 35.4844C231.753 35.6889 230.457 35.7919 229.081 35.7919ZM222.231 23.6848H233.253V22.2314C233.253 20.794 232.858 19.6713 232.067 18.8634C231.277 18.0569 229.945 17.6522 228.071 17.6522C225.846 17.6522 224.317 18.1367 223.484 19.1056C222.649 20.0745 222.231 21.6019 222.231 23.6848Z" fill="white"/>
<path d="M79.5592 41.991H67.8875C67.792 41.991 67.7139 41.9127 67.7139 41.8169V38.4722C67.7139 38.3764 67.792 38.2981 67.8875 38.2981H79.5592C79.6546 38.2981 79.7328 38.3764 79.7328 38.4722V41.8169C79.7328 41.9127 79.6546 41.991 79.5592 41.991Z" fill="white"/>
<path d="M72.3896 8.67674V0.126191C72.3896 0.0565678 72.4461 0 72.5155 0H74.9531C75.0226 0 75.079 0.0565678 75.079 0.126191V8.67674C75.079 8.74636 75.0226 8.80293 74.9531 8.80293H72.5155C72.4475 8.80438 72.3896 8.74636 72.3896 8.67674Z" fill="white"/>
<path d="M81.281 10.1418L87.2948 4.11218C87.344 4.06287 87.4236 4.06287 87.4728 4.11218L89.1928 5.83679C89.242 5.88611 89.242 5.96589 89.1928 6.0152L83.1791 12.0448C83.1299 12.0941 83.0503 12.0941 83.0011 12.0448L81.281 10.3202C81.2318 10.2723 81.2318 10.1911 81.281 10.1418Z" fill="white"/>
<path d="M65.8958 10.1344L59.9023 4.12512C59.8531 4.07581 59.7735 4.07581 59.7243 4.12512L58.01 5.84393C57.9608 5.89325 57.9608 5.97302 58.01 6.02234L64.0036 12.0317C64.0528 12.081 64.1323 12.081 64.1815 12.0317L65.8958 10.3128C65.945 10.2635 65.945 10.1838 65.8958 10.1344Z" fill="white"/>
<path d="M77.9377 46.4339H69.5109C69.4313 46.4339 69.3662 46.3687 69.3662 46.2889V43.4837C69.3662 43.4039 69.4313 43.3386 69.5109 43.3386H77.9377C78.0173 43.3386 78.0824 43.4039 78.0824 43.4837V46.2889C78.0824 46.3687 78.0173 46.4339 77.9377 46.4339Z" fill="white"/>
<path d="M226.156 64.4737C230.212 64.1995 233.639 62.6925 236.4 59.9525C239.466 56.9065 241 53.0599 241 48.4154C241 44.1801 239.795 40.5481 237.218 37.6616C237.143 37.5775 237.016 37.5151 236.894 37.5151C236.663 37.5151 236.475 37.7037 236.475 37.9358C236.475 37.9764 236.479 38.0141 236.491 38.0518C238.39 43.172 237.285 48.3197 233.93 49.6817C231.581 50.6347 228.735 49.4845 226.488 46.9896C226.319 46.8199 226.033 46.8156 225.863 46.9838C225.71 47.1376 225.697 47.3769 225.822 47.5466L225.868 47.6003C227.809 49.7963 228.8 52.5159 228.8 55.7113C228.8 58.8995 227.824 61.5785 225.871 63.7484C225.79 63.8253 225.738 63.9341 225.738 64.0545C225.736 64.2851 225.924 64.4737 226.156 64.4737Z" fill="white"/>
<path d="M194.724 63.0477C194.386 62.556 193.936 61.8221 193.373 60.8459C192.48 59.2954 191.787 58.209 191.296 57.5853C190.804 56.963 190.299 56.4713 189.784 56.1087C190.66 55.749 191.485 55.2036 191.954 54.474C192.424 53.7429 192.658 52.8785 192.658 51.8776C192.658 50.4097 192.179 49.245 191.222 48.3834C190.264 47.5233 188.817 47.0911 187.187 47.0911H183.148V64.2777H185.662V56.7976H185.842C186.597 56.7976 187.134 56.8905 187.453 57.0747C187.773 57.2589 188.13 57.5591 188.528 57.9783C188.924 58.3946 189.361 58.9559 189.837 59.6638L190.61 61.0055L191.324 62.2601L191.774 62.936C191.842 63.0347 191.89 63.1043 191.913 63.1464L192.616 64.2777H195.579L194.724 63.0477ZM188.806 54.0766C188.409 54.2709 187.527 54.3681 186.461 54.3681H185.661V49.422H186.292C187.323 49.422 188.211 49.5047 188.657 49.6686C189.102 49.8325 189.447 50.1153 189.693 50.5156C189.939 50.916 190.062 51.3627 190.062 51.8559C190.062 52.3577 189.952 52.8045 189.73 53.1961C189.512 53.5892 189.202 53.8822 188.806 54.0766Z" fill="white"/>
<path d="M197.669 47.0911H206.267V49.5163H200.216V53.8503H206.267V56.2682H200.216V64.2777H197.669V47.0911V47.0911Z" fill="white"/>
<path d="M177.997 49.3669C176.341 47.6858 174.267 46.8459 171.775 46.8459C169.284 46.8459 167.224 47.6872 165.594 49.3669C163.963 51.0494 163.149 53.1744 163.149 55.7403C163.149 58.2423 163.958 60.3238 165.576 61.9845C167.195 63.6453 169.219 64.475 171.648 64.475C174.193 64.475 176.302 63.6453 177.974 61.9845C179.647 60.3238 180.483 58.2249 180.483 55.6924C180.483 53.1555 179.654 51.0494 177.997 49.3669ZM176.124 60.3441C174.968 61.6031 173.526 62.234 171.799 62.234C170.078 62.234 168.645 61.6161 167.5 60.3818C166.355 59.1474 165.783 57.5998 165.783 55.7403C165.783 53.8242 166.353 52.2475 167.495 51.0132C168.636 49.7788 170.093 49.1609 171.865 49.1609C173.549 49.1609 174.968 49.7846 176.124 51.0306C177.28 52.278 177.859 53.8155 177.859 55.6416C177.859 57.5171 177.28 59.0836 176.124 60.3441Z" fill="white"/>
<path d="M223.433 49.3669C221.777 47.6858 219.702 46.8459 217.211 46.8459C214.72 46.8459 212.658 47.6872 211.029 49.3669C209.399 51.0494 208.584 53.1744 208.584 55.7403C208.584 58.2423 209.393 60.3238 211.012 61.9845C212.631 63.6453 214.655 64.475 217.084 64.475C219.628 64.475 221.738 63.6453 223.41 61.9845C225.082 60.3238 225.918 58.2249 225.918 55.6924C225.918 53.1555 225.089 51.0494 223.433 49.3669ZM221.56 60.3441C220.404 61.6031 218.961 62.234 217.234 62.234C215.514 62.234 214.08 61.6161 212.936 60.3818C211.792 59.1474 211.22 57.5998 211.22 55.7403C211.22 53.8242 211.79 52.2475 212.932 51.0132C214.073 49.7788 215.53 49.1609 217.302 49.1609C218.986 49.1609 220.405 49.7846 221.561 51.0306C222.717 52.278 223.294 53.8155 223.294 55.6416C223.294 57.5171 222.715 59.0836 221.56 60.3441Z" fill="white"/>
<path d="M160.785 60.344C159.472 61.6031 157.832 62.234 155.869 62.234C153.915 62.234 152.286 61.6161 150.985 60.3818C149.685 59.1474 149.034 57.5997 149.034 55.7402C149.034 53.8242 149.682 52.2475 150.978 51.0131C152.274 49.7788 153.929 49.1609 155.945 49.1609C157.857 49.1609 159.472 49.7846 160.785 51.0306C160.8 51.0451 160.811 51.0581 160.826 51.0726V50.9305V48.5328V48.2848C158.755 47.342 156.875 46.8691 155.182 46.8691C152.727 46.8691 150.664 47.722 148.99 49.4292C147.317 51.135 146.48 53.2382 146.48 55.7402C146.48 57.3155 146.846 58.779 147.577 60.1308C148.308 61.4856 149.3 62.5473 150.554 63.319C151.809 64.0906 153.335 64.475 155.136 64.475C157.352 64.475 159.307 63.9833 160.999 62.9984V62.7547V60.2918V60.1381C160.992 60.1424 160.986 60.1453 160.979 60.1497C160.915 60.2135 160.852 60.2802 160.785 60.344Z" fill="white"/>
<path d="M234.538 43.214C233.947 42.6164 233.21 42.3162 232.324 42.3162C231.437 42.3162 230.705 42.615 230.125 43.214C229.545 43.8131 229.254 44.5687 229.254 45.4811C229.254 46.3717 229.542 47.1114 230.118 47.7018C230.694 48.2936 231.414 48.588 232.279 48.588C233.184 48.588 233.934 48.2921 234.53 47.7018C235.125 47.11 235.423 46.3644 235.423 45.4637C235.422 44.5615 235.126 43.8116 234.538 43.214Z" fill="white"/>
</svg>
