<svg width="305" height="85" viewBox="0 0 305 85" fill="none" xmlns="http://www.w3.org/2000/svg">
<path d="M72.6968 20.396L37.8785 0.256016C37.2664 -0.0853387 36.4504 -0.0853387 35.8384 0.256016L1.02007 20.396C0.408027 20.8056 0 21.4883 0 22.171V62.5191C0 63.2701 0.408027 63.9528 1.02007 64.2942L22.7135 76.856C22.9855 77.1291 23.2575 77.3339 23.6656 77.4022L35.8384 84.4341C36.1784 84.6389 36.5184 84.7072 36.8584 84.7072C37.1984 84.7072 37.5385 84.6389 37.8785 84.4341L72.6968 64.2942C73.3088 63.9528 73.7168 63.2701 73.7168 62.5191V22.171C73.7168 21.4883 73.3088 20.8056 72.6968 20.396Z" fill="white"/>
<path d="M35.7022 42.106C35.0901 42.5156 34.7501 43.1301 34.7501 43.8128V79.1772L26.1815 74.1934V39.2386L37.8103 32.5481C38.7624 32.0019 39.1024 30.7048 38.5583 29.749C38.0143 28.7932 36.7222 28.4518 35.7702 28.998L23.1213 36.303C22.5093 36.6443 22.1013 37.3271 22.1013 38.078V71.8039L15.0288 67.7076V32.0019L28.9697 23.8777C29.9218 23.3315 30.2618 22.0344 29.7178 21.0786C29.1737 20.1228 27.8816 19.7814 26.9296 20.3276L11.9686 28.998C11.3566 29.3393 10.9485 30.0221 10.9485 30.773V65.3181L4.08008 61.3584V23.3998L34.8181 5.58105V18.6208C34.8181 19.3718 35.2261 20.0545 35.8382 20.3959L53.4513 30.5682L35.7022 42.106Z" fill="#5A2C89"/>
<path d="M69.6366 61.3584L38.8986 79.1772V64.6354C39.0346 64.5672 39.1706 64.5672 39.3066 64.4306L55.0836 55.2823C56.0357 54.7362 56.3757 53.439 55.8317 52.4832C55.2876 51.5274 53.9956 51.1861 53.0435 51.7322L38.8306 59.9247V44.9051L58.3478 32.2067C58.9599 31.7971 59.2999 31.1144 59.2999 30.4317C59.2999 29.749 58.8919 29.0663 58.2798 28.7249L38.8986 17.4602V5.58105L69.6366 23.3998V61.3584Z" fill="#5A2C89"/>
<path d="M91.9419 32.0705H99.0824L102.687 47.0901L106.291 32.0022H113.431V52.6883H109.283V36.7129H108.807L104.795 51.8008H100.646L96.5662 36.7129H96.0902V52.6883H91.9419V32.0705V32.0705Z" fill="white"/>
<path d="M122.34 32.0703H130.297L134.921 52.7564H130.773L129.956 49.0015H122.748L121.932 52.7564H117.784L122.34 32.0703ZM123.496 45.3149H129.14L127.032 35.4839H125.604L123.496 45.3149Z" fill="white"/>
<path d="M143.353 45.7928V52.6881H139.205V32.0703H147.162C151.854 32.0703 154.438 34.1867 154.438 38.8974C154.438 41.7648 153.282 43.6764 151.378 44.837L154.302 52.7564H149.746L147.366 45.861H143.353V45.7928ZM147.162 35.6204H143.353V42.1744H147.23C149.338 42.1744 150.154 40.7407 150.154 38.8974C150.154 36.9176 149.134 35.6204 147.162 35.6204Z" fill="white"/>
<path d="M166.407 44.4956L163.619 44.7687V52.6881H159.471V32.0703H163.619V41.1504L166.407 40.8773L169.807 32.0703H174.568L170.079 42.4475L174.704 52.7564H169.875L166.407 44.4956Z" fill="white"/>
<path d="M178.92 32.0703H192.248V35.6887H183.136V40.5359H190.412V44.1543H183.068V49.1381H192.18V52.7564H178.852V32.0703H178.92Z" fill="white"/>
<path d="M195.377 32.0703H210.542V35.7569H205.102V52.6881H200.953V35.7569H195.445V32.0703H195.377Z" fill="white"/>
<path d="M214.622 32.0703H227.747V35.6887H218.77V41.7648H226.115V45.3832H218.77V52.6881H214.622V32.0703Z" fill="white"/>
<path d="M231.283 42.5158C231.283 35.5522 233.323 31.729 239.784 31.729C246.244 31.729 248.352 35.5522 248.352 42.5158C248.352 49.4795 246.312 53.0978 239.784 53.0978C233.391 53.0978 231.283 49.4795 231.283 42.5158ZM244.068 42.5158C244.068 37.7368 243.252 35.3474 239.852 35.3474C236.452 35.3474 235.635 37.7368 235.635 42.5158C235.635 47.2948 236.452 49.4112 239.852 49.4112C243.252 49.4112 244.068 47.2948 244.068 42.5158Z" fill="white"/>
<path d="M257.669 45.7928V52.6881H253.521V32.0703H261.477C266.169 32.0703 268.754 34.1867 268.754 38.8974C268.754 41.7648 267.597 43.6764 265.761 44.837L268.686 52.7564H264.129L261.749 45.861H257.669V45.7928ZM261.477 35.6204H257.669V42.1744H261.545C263.653 42.1744 264.469 40.7407 264.469 38.8974C264.469 36.9176 263.449 35.6204 261.477 35.6204Z" fill="white"/>
<path d="M286.775 52.3467C285.415 52.6197 282.626 53.0294 280.79 53.0294C274.466 53.0294 272.902 49.5475 272.902 42.3108C272.902 34.4597 274.67 31.5923 280.79 31.5923C282.967 31.5923 285.551 32.1385 286.843 32.4115L286.707 35.7568C285.347 35.552 282.763 35.2789 281.402 35.2789C278.206 35.2789 277.254 36.3713 277.254 42.2426C277.254 47.7725 278.002 49.2062 281.538 49.2062C282.899 49.2062 285.483 48.9331 286.707 48.7966L286.775 52.3467Z" fill="white"/>
<path d="M291.671 32.0703H305V35.6887H295.887V40.5359H303.232V44.1543H295.887V49.1381H305V52.7564H291.671V32.0703Z" fill="white"/>
</svg>
