<svg width="241" height="67" viewBox="0 0 241 67" fill="none" xmlns="http://www.w3.org/2000/svg">
<g clip-path="url(#clip0_506_3659)">
<path d="M57.4424 16.1296L29.9302 0.215722C29.4466 -0.0540038 28.8018 -0.0540038 28.3182 0.215722L0.80602 16.1296C0.322408 16.4532 0 16.9927 0 17.5321V49.4138C0 50.0072 0.322408 50.5466 0.80602 50.8164L17.9474 60.7423C18.1623 60.9581 18.3773 61.1199 18.6997 61.1739L28.3182 66.7302C28.5868 66.8921 28.8555 66.946 29.1242 66.946C29.3929 66.946 29.6615 66.8921 29.9302 66.7302L57.4424 50.8164C57.926 50.5466 58.2484 50.0072 58.2484 49.4138V17.5321C58.2484 16.9927 57.926 16.4532 57.4424 16.1296Z" fill="#5A2C89"/>
<path d="M28.2107 33.284C27.7271 33.6077 27.4585 34.0932 27.4585 34.6327V62.5763L20.6879 58.6383V31.0183L29.8765 25.7317C30.6288 25.3002 30.8975 24.2752 30.4676 23.52C30.0377 22.7647 29.0168 22.495 28.2645 22.9266L18.2698 28.6987C17.7862 28.9684 17.4638 29.5079 17.4638 30.1013V56.7502L11.8754 53.5135V25.3002L22.891 18.8807C23.6433 18.4491 23.912 17.4241 23.4821 16.6689C23.0522 15.9137 22.0313 15.644 21.279 16.0755L9.45734 22.9266C8.97373 23.1963 8.65132 23.7357 8.65132 24.3291V51.6254L3.22412 48.4966V18.503L27.5122 4.42334V14.7269C27.5122 15.3203 27.8346 15.8597 28.3182 16.1295L42.2355 24.1673L28.2107 33.284Z" fill="white"/>
<path d="M55.0244 48.4966L30.7364 62.5763V51.086C30.8438 51.032 30.9513 51.032 31.0588 50.9241L43.5252 43.6955C44.2775 43.2639 44.5462 42.239 44.1163 41.4837C43.6864 40.7285 42.6654 40.4588 41.9132 40.8903L30.6826 47.3638V35.4958L46.1045 25.462C46.5881 25.1383 46.8568 24.5989 46.8568 24.0594C46.8568 23.52 46.5343 22.9805 46.0507 22.7108L30.7364 13.8098V4.42334L55.0244 18.503V48.4966Z" fill="#EB008B"/>
<path d="M72.6492 25.3542H78.2913L81.1392 37.2222L83.9872 25.3003H89.6293V41.6457H86.3515V29.0225H85.9754L82.805 40.9444H79.5272L76.3031 29.0225H75.927V41.6457H72.6492V25.3542V25.3542Z" fill="#5A2C89"/>
<path d="M96.6686 25.3542H102.956L106.609 41.6997H103.332L102.687 38.7327H96.991L96.3462 41.6997H93.0684L96.6686 25.3542ZM97.5821 35.8196H102.042L100.376 28.0515H99.2478L97.5821 35.8196Z" fill="#5A2C89"/>
<path d="M113.273 36.1972V41.6457H109.995V25.3542H116.282C119.99 25.3542 122.031 27.0266 122.031 30.7488C122.031 33.0145 121.118 34.5249 119.613 35.442L121.924 41.6997H118.324L116.443 36.2512H113.273V36.1972ZM116.282 28.1594H113.273V33.3381H116.336C118.001 33.3381 118.646 32.2053 118.646 30.7488C118.646 29.1844 117.84 28.1594 116.282 28.1594Z" fill="#5A2C89"/>
<path d="M131.489 35.1723L129.286 35.3881V41.6457H126.008V25.3542H129.286V32.529L131.489 32.3132L134.175 25.3542H137.937L134.39 33.5539L138.044 41.6997H134.229L131.489 35.1723Z" fill="#5A2C89"/>
<path d="M141.376 25.3542H151.908V28.2133H144.707V32.0435H150.457V34.9026H144.654V38.8406H151.854V41.6997H141.322V25.3542H141.376Z" fill="#5A2C89"/>
<path d="M154.38 25.3542H166.362V28.2673H162.064V41.6457H158.786V28.2673H154.433V25.3542H154.38Z" fill="#5A2C89"/>
<path d="M169.586 25.3542H179.957V28.2133H172.864V33.0145H178.668V35.8736H172.864V41.6457H169.586V25.3542Z" fill="#5A2C89"/>
<path d="M182.751 33.6078C182.751 28.1054 184.364 25.0845 189.468 25.0845C194.573 25.0845 196.239 28.1054 196.239 33.6078C196.239 39.1102 194.627 41.9693 189.468 41.9693C184.417 41.9693 182.751 39.1102 182.751 33.6078ZM192.854 33.6078C192.854 29.8317 192.209 27.9436 189.522 27.9436C186.835 27.9436 186.19 29.8317 186.19 33.6078C186.19 37.384 186.835 39.0563 189.522 39.0563C192.209 39.0563 192.854 37.384 192.854 33.6078Z" fill="#5A2C89"/>
<path d="M203.601 36.1972V41.6457H200.323V25.3542H206.61C210.317 25.3542 212.359 27.0266 212.359 30.7488C212.359 33.0145 211.446 34.5249 209.995 35.442L212.306 41.6997H208.705L206.825 36.2512H203.601V36.1972ZM206.61 28.1594H203.601V33.3381H206.663C208.329 33.3381 208.974 32.2053 208.974 30.7488C208.974 29.1844 208.168 28.1594 206.61 28.1594Z" fill="#5A2C89"/>
<path d="M226.599 41.3759C225.524 41.5917 223.321 41.9154 221.87 41.9154C216.873 41.9154 215.637 39.1642 215.637 33.446C215.637 27.2423 217.034 24.9766 221.87 24.9766C223.59 24.9766 225.632 25.4081 226.653 25.6239L226.545 28.2672C225.471 28.1054 223.429 27.8896 222.354 27.8896C219.829 27.8896 219.076 28.7527 219.076 33.392C219.076 37.7616 219.667 38.8944 222.462 38.8944C223.536 38.8944 225.578 38.6787 226.545 38.5708L226.599 41.3759Z" fill="#5A2C89"/>
<path d="M230.468 25.3542H241V28.2133H233.799V32.0435H239.603V34.9026H233.799V38.8406H241V41.6997H230.468V25.3542Z" fill="#5A2C89"/>
</g>
<defs>
<clipPath id="clip0_506_3659">
<rect width="241" height="67" fill="white"/>
</clipPath>
</defs>
</svg>
