<svg width="135" height="134" viewBox="0 0 135 134" fill="none" xmlns="http://www.w3.org/2000/svg">
<path d="M7.66801 59.2654C-19.7398 101.518 32.6287 121 65.6648 121C98.2116 121 135 108.67 135 70.6094C135 -27.2947 54.6528 -13.3201 7.66801 59.2654Z" fill="#E4DAEF"/>
<path d="M104.098 79.7957C96.8263 79.7957 90.8634 73.8327 90.8634 66.5612C90.8634 59.2896 96.8263 53.3267 104.098 53.3267C111.369 53.3267 117.332 59.2896 117.332 66.5612C117.332 73.8327 111.369 79.7957 104.098 79.7957V79.7957ZM104.098 59.1444C100.026 59.1444 96.6812 62.4891 96.6812 66.5612C96.6812 70.6332 100.026 73.9779 104.098 73.9779C108.17 73.9779 111.515 70.6332 111.515 66.5612C111.515 62.4891 108.17 59.1444 104.098 59.1444V59.1444Z" fill="#5A2C89"/>
<path d="M70.9395 79.7957C63.668 79.7957 57.705 73.8327 57.705 66.5612C57.705 59.2896 63.668 53.3267 70.9395 53.3267C78.2111 53.3267 84.174 59.2896 84.174 66.5612C84.174 73.8327 78.2111 79.7957 70.9395 79.7957ZM70.9395 59.1444C66.8674 59.1444 63.5228 62.4891 63.5228 66.5612C63.5228 70.6332 66.8674 73.9779 70.9395 73.9779C75.0116 73.9779 78.3562 70.6332 78.3562 66.5612C78.3562 62.4891 75.0116 59.1444 70.9395 59.1444V59.1444Z" fill="#5A2C89"/>
<path d="M37.7811 79.7957C30.5096 79.7957 24.5466 73.8327 24.5466 66.5612C24.5466 59.2896 30.5096 53.3267 37.7811 53.3267C45.0527 53.3267 51.0156 59.2896 51.0156 66.5612C51.0156 73.8327 45.0527 79.7957 37.7811 79.7957ZM37.7811 59.1444C33.7091 59.1444 30.3644 62.4891 30.3644 66.5612C30.3644 70.6332 33.7091 73.9779 37.7811 73.9779C41.8532 73.9779 45.1979 70.6332 45.1979 66.5612C45.1979 62.4891 41.8532 59.1444 37.7811 59.1444V59.1444Z" fill="#5A2C89"/>
<path d="M36.9087 133.023C36.0362 133.023 35.3089 132.878 34.5815 132.587C30.3646 130.842 32.1093 125.607 33.7091 121.535C34.1453 120.226 35.0178 118.044 35.1638 117.027C13.7854 102.484 3.16897 76.8876 8.25906 51.4372C11.6037 34.7131 21.3474 20.1695 35.4547 10.7164C49.7067 1.26392 66.7224 -2.08177 83.447 1.26392C118.06 8.24436 140.601 41.9847 133.621 76.5973C126.64 111.21 92.9 133.752 58.2874 126.771C56.9788 126.626 52.1793 128.371 48.9798 129.679C43.7443 131.714 39.8174 133.024 36.909 133.024L36.9087 133.023ZM70.7941 5.91661C59.4505 5.91661 48.3983 9.26126 38.6538 15.6605C25.7105 24.2407 16.9843 37.33 13.9308 52.6C9.27648 75.8695 19.0214 99.4289 38.945 112.518C42.2896 114.845 40.6898 119.353 39.2361 123.425C38.7999 124.444 38.3637 125.897 38.0725 127.061C40.2536 126.625 44.4718 125.025 47.089 124.006C53.1971 121.679 56.9778 120.37 59.5961 120.952C91.0092 127.205 121.695 106.845 128.094 75.2863C134.347 43.8731 113.987 13.1871 82.4288 6.78815C78.5019 6.2089 74.7199 5.91775 70.794 5.91775L70.7941 5.91661Z" fill="#5A2C89"/>
</svg>
